# xmcd
# 
# Track frame offsets:
#   150
#   12732
#   26987
#   40667
#   53592
#   67490
#   82572
#   98807
#   114357
#   128852
#   144480
#   159375
#   171735
#   187535
# 
# Disc length: 2710 seconds
# 
# Revision: 1
# Processed by: cddbd v1.5.1PL2 Copyright (c) Steve Scherf et al.
# Submitted via: Synapstar 1.0 
# 
DISCID=b70a940e
DTITLE=Various Artist - SD028 - Country Hits Today
DYEAR=1900
DGENRE=Country
TTITLE0=LeAnn Rimes - Blue
TTITLE1=George Strait - Carried Away
TTITLE2=Blackhawk - Big Guitar
TTITLE3=Clay Walker - Only On Days That End In "Y"
TTITLE4=Wade Hayes - On A Good Night
TTITLE5=Alabama - Say I
TTITLE6=Lee Roy Parnell - Givin' Water To A Drowning Man
TTITLE7=Lonestar - Runnin' Away With My Heart
TTITLE8=Aaron Tippin - Everything I Own
TTITLE9=Pam Tillis - It's Lonely Out There
TTITLE10=Tracy Byrd - 4 to 1 In Atlanta
TTITLE11=Suzy Bogguss - Give Me Some Wheels
TTITLE12=Rick Trevino - Learning As You Go
TTITLE13=Mark Chesnutt - Wrong Place, Wrong Time
EXTD=MediaType: Karaoke CD+G Producer: StarDisc
EXTT0=
EXTT1=
EXTT2=
EXTT3=
EXTT4=
EXTT5=
EXTT6=
EXTT7=
EXTT8=
EXTT9=
EXTT10=
EXTT11=
EXTT12=
EXTT13=
PLAYORDER=
